<svg width="25" height="25" viewBox="0 0 25 25" fill="none" xmlns="http://www.w3.org/2000/svg">
<g clip-path="url(#clip0_1622_581)">
<path d="M13.7246 12.4587L19.7997 6.38373C19.9362 6.22431 20.0075 6.01925 19.9994 5.80952C19.9913 5.59979 19.9044 5.40084 19.756 5.25243C19.6075 5.10401 19.4086 5.01707 19.1989 5.00897C18.9891 5.00087 18.7841 5.07221 18.6247 5.20873L12.5497 11.2837L6.47465 5.2004C6.31523 5.06387 6.11017 4.99254 5.90044 5.00064C5.69071 5.00874 5.49176 5.09568 5.34335 5.24409C5.19494 5.39251 5.10799 5.59145 5.09989 5.80118C5.09179 6.01091 5.16313 6.21598 5.29965 6.3754L11.3747 12.4587L5.29132 18.5337C5.20408 18.6084 5.13323 18.7004 5.08321 18.8038C5.03319 18.9071 5.00508 19.0198 5.00065 19.1345C4.99622 19.2493 5.01556 19.3637 5.05745 19.4707C5.09935 19.5776 5.1629 19.6747 5.24411 19.7559C5.32532 19.8372 5.42244 19.9007 5.52938 19.9426C5.63632 19.9845 5.75076 20.0038 5.86553 19.9994C5.98029 19.995 6.0929 19.9669 6.19629 19.9168C6.29968 19.8668 6.39161 19.796 6.46632 19.7087L12.5497 13.6337L18.6247 19.7087C18.7841 19.8453 18.9891 19.9166 19.1989 19.9085C19.4086 19.9004 19.6075 19.8134 19.756 19.665C19.9044 19.5166 19.9913 19.3177 19.9994 19.1079C20.0075 18.8982 19.9362 18.6931 19.7997 18.5337L13.7246 12.4587Z" fill="#636363"/>
</g>
<defs>
<clipPath id="clip0_1622_581">
<rect width="25" height="25" fill="white"/>
</clipPath>
</defs>
</svg>
