<svg width="21" height="21" viewBox="0 0 21 21" fill="none" xmlns="http://www.w3.org/2000/svg">
<path d="M6.55618 2.88125C6.70684 2.7306 6.90731 2.6401 7.11995 2.62673C7.3326 2.61335 7.54282 2.67803 7.71118 2.80863L7.79343 2.88125L14.7934 9.88125C14.9441 10.0319 15.0346 10.2324 15.048 10.445C15.0613 10.6577 14.9966 10.8679 14.866 11.0363L14.7934 11.1185L7.79343 18.1185C7.63596 18.2754 7.42467 18.3665 7.20246 18.3733C6.98026 18.3801 6.7638 18.3021 6.59706 18.155C6.43031 18.008 6.32578 17.803 6.3047 17.5817C6.28362 17.3604 6.34757 17.1394 6.48355 16.9635L6.55618 16.8813L12.9376 10.4999L6.55618 4.1185C6.39214 3.95442 6.29999 3.7319 6.29999 3.49988C6.29999 3.26786 6.39214 3.04534 6.55618 2.88125Z" fill="black"/>
</svg>
