<svg width="21" height="21" viewBox="0 0 21 21" fill="none" xmlns="http://www.w3.org/2000/svg">
<path d="M15.75 2.625C15.9643 2.62503 16.1712 2.70371 16.3313 2.84613C16.4915 2.98854 16.5938 3.18478 16.6189 3.39762L16.625 3.5V17.5C16.6247 17.723 16.5394 17.9375 16.3863 18.0997C16.2332 18.2619 16.0239 18.3595 15.8013 18.3725C15.5786 18.3856 15.3594 18.3132 15.1884 18.17C15.0174 18.0269 14.9075 17.8238 14.8811 17.6024L14.875 17.5V3.5C14.875 3.26794 14.9672 3.04538 15.1313 2.88128C15.2954 2.71719 15.5179 2.625 15.75 2.625ZM4.63137 2.88137C4.78204 2.73072 4.9825 2.64022 5.19515 2.62685C5.4078 2.61348 5.61802 2.67816 5.78637 2.80875L5.86862 2.88137L12.8686 9.88138C13.0193 10.032 13.1098 10.2325 13.1231 10.4452C13.1365 10.6578 13.0718 10.868 12.9412 11.0364L12.8686 11.1186L5.86862 18.1186C5.71116 18.2756 5.49987 18.3667 5.27766 18.3734C5.05545 18.3802 4.839 18.3022 4.67225 18.1552C4.50551 18.0081 4.40098 17.8031 4.3799 17.5818C4.35882 17.3605 4.42276 17.1395 4.55875 16.9636L4.63137 16.8814L11.0127 10.5L4.63137 4.11862C4.46733 3.95454 4.37518 3.73202 4.37518 3.5C4.37518 3.26798 4.46733 3.04546 4.63137 2.88137Z" fill="black"/>
</svg>
