<svg width="21" height="21" viewBox="0 0 21 21" fill="none" xmlns="http://www.w3.org/2000/svg">
<path d="M14.4439 18.1187C14.2932 18.2694 14.0928 18.3599 13.8801 18.3733C13.6675 18.3866 13.4572 18.322 13.2889 18.1914L13.2066 18.1187L6.20664 11.1187C6.05598 10.9681 5.96548 10.7676 5.95211 10.555C5.93874 10.3423 6.00342 10.1321 6.13401 9.96375L6.20664 9.8815L13.2066 2.8815C13.3641 2.72457 13.5754 2.63346 13.7976 2.62667C14.0198 2.61989 14.2363 2.69794 14.403 2.84496C14.5698 2.99199 14.6743 3.19698 14.6954 3.41829C14.7164 3.6396 14.6525 3.86063 14.5165 4.0365L14.4439 4.11875L8.06251 10.5001L14.4439 16.8815C14.6079 17.0456 14.7001 17.2681 14.7001 17.5001C14.7001 17.7321 14.6079 17.9547 14.4439 18.1187Z" fill="black"/>
</svg>
