<svg width="21" height="21" viewBox="0 0 21 21" fill="none" xmlns="http://www.w3.org/2000/svg">
<path d="M5.25013 18.3752C5.03581 18.3752 4.82896 18.2965 4.6688 18.1541C4.50865 18.0117 4.40633 17.8155 4.38125 17.6026L4.37513 17.5002L4.37513 3.50024C4.37538 3.27722 4.46077 3.06272 4.61387 2.90055C4.76697 2.73838 4.97621 2.64079 5.19885 2.62772C5.42149 2.61465 5.64071 2.68708 5.81173 2.83022C5.98275 2.97337 6.09266 3.17641 6.119 3.39787L6.12513 3.50024L6.12513 17.5002C6.12513 17.7323 6.03294 17.9549 5.86885 18.119C5.70475 18.2831 5.48219 18.3752 5.25013 18.3752ZM16.3688 18.1189C16.2181 18.2695 16.0176 18.36 15.805 18.3734C15.5923 18.3868 15.3821 18.3221 15.2138 18.1915L15.1315 18.1189L8.1315 11.1189C7.98085 10.9682 7.89035 10.7677 7.87697 10.5551C7.8636 10.3424 7.92828 10.1322 8.05888 9.96387L8.1315 9.88162L15.1315 2.88162C15.289 2.72469 15.5003 2.63358 15.7225 2.62679C15.9447 2.62001 16.1611 2.69806 16.3279 2.84509C16.4946 2.99212 16.5991 3.1971 16.6202 3.41841C16.6413 3.63972 16.5774 3.86075 16.4414 4.03662L16.3688 4.11887L9.98738 10.5002L16.3688 16.8816C16.5328 17.0457 16.6249 17.2682 16.6249 17.5002C16.6249 17.7323 16.5328 17.9548 16.3688 18.1189Z" fill="black"/>
</svg>
