<svg width="16" height="16" viewBox="0 0 16 16" fill="none" xmlns="http://www.w3.org/2000/svg">
<path d="M11.9859 9.34922C11.853 9.21633 11.6376 9.21633 11.5047 9.34922L10.5078 10.3461V3.74609C10.5078 3.55625 10.3539 3.40234 10.1641 3.40234V3.40234C9.97421 3.40234 9.82031 3.55625 9.82031 3.74609V10.3461L8.82344 9.34922C8.69054 9.21633 8.47508 9.21633 8.34219 9.34922V9.34922C8.20929 9.48211 8.20929 9.69758 8.34219 9.83047L10.1641 11.6523L11.9859 9.83047C12.1188 9.69758 12.1188 9.48211 11.9859 9.34922V9.34922ZM5.35156 3.40234L3.52969 5.22422C3.39679 5.35711 3.39679 5.57258 3.52969 5.70547V5.70547C3.66258 5.83836 3.87804 5.83836 4.01094 5.70547L5.00781 4.70859V11.3086C5.00781 11.4984 5.16171 11.6523 5.35156 11.6523V11.6523C5.54141 11.6523 5.69531 11.4984 5.69531 11.3086V4.70859L6.69219 5.70547C6.82508 5.83836 7.04054 5.83836 7.17344 5.70547V5.70547C7.30633 5.57258 7.30633 5.35711 7.17344 5.22422L5.35156 3.40234Z" fill="#717375" stroke="#717375" stroke-width="0.5"/>
</svg>
