<svg width="15" height="16" viewBox="0 0 15 16" fill="none" xmlns="http://www.w3.org/2000/svg">
<path d="M12.1861 5.49372L7.50045 10.0612L2.81483 5.49372C2.73111 5.41195 2.61873 5.36617 2.5017 5.36617C2.38468 5.36617 2.27229 5.41195 2.18858 5.49372C2.14804 5.53344 2.11584 5.58084 2.09385 5.63316C2.07187 5.68548 2.06055 5.74166 2.06055 5.79841C2.06055 5.85516 2.07187 5.91134 2.09385 5.96366C2.11584 6.01597 2.14804 6.06338 2.18858 6.1031L7.17327 10.9631C7.2608 11.0484 7.37821 11.0962 7.50045 11.0962C7.6227 11.0962 7.7401 11.0484 7.82764 10.9631L12.8123 6.10403C12.8532 6.06429 12.8856 6.01677 12.9078 5.96427C12.9299 5.91178 12.9413 5.85538 12.9413 5.79841C12.9413 5.74143 12.9299 5.68504 12.9078 5.63254C12.8856 5.58005 12.8532 5.53253 12.8123 5.49278C12.7286 5.41101 12.6162 5.36523 12.4992 5.36523C12.3822 5.36523 12.2698 5.41101 12.1861 5.49278V5.49372Z" fill="black"/>
</svg>
