<svg width="15" height="16" viewBox="0 0 15 16" fill="none" xmlns="http://www.w3.org/2000/svg">
<path d="M7.5 2V5.375C7.5 5.67337 7.61853 5.95952 7.8295 6.1705C8.04048 6.38147 8.32663 6.5 8.625 6.5H12V12.875C12 13.1734 11.8815 13.4595 11.6705 13.6705C11.4595 13.8815 11.1734 14 10.875 14H7.30725C7.8674 13.3217 8.19603 12.482 8.24513 11.6037C8.29423 10.7253 8.06125 9.85429 7.58019 9.11776C7.09913 8.38122 6.3952 7.81776 5.5712 7.50967C4.74719 7.20158 3.84627 7.16499 3 7.40525V3.125C3 2.82663 3.11853 2.54048 3.3295 2.3295C3.54048 2.11853 3.82663 2 4.125 2H7.5ZM8.25 2.1875V5.375C8.25 5.47446 8.28951 5.56984 8.35983 5.64016C8.43016 5.71049 8.52554 5.75 8.625 5.75H11.8125L8.25 2.1875ZM4.125 14.75C5.02011 14.75 5.87855 14.3944 6.51149 13.7615C7.14442 13.1285 7.5 12.2701 7.5 11.375C7.5 10.4799 7.14442 9.62145 6.51149 8.98851C5.87855 8.35558 5.02011 8 4.125 8C3.22989 8 2.37145 8.35558 1.73851 8.98851C1.10558 9.62145 0.75 10.4799 0.75 11.375C0.75 12.2701 1.10558 13.1285 1.73851 13.7615C2.37145 14.3944 3.22989 14.75 4.125 14.75V14.75ZM2.3595 11.6405C2.28908 11.5701 2.24953 11.4746 2.24953 11.375C2.24953 11.2754 2.28908 11.1799 2.3595 11.1095C2.42991 11.0391 2.52542 10.9995 2.625 10.9995C2.72458 10.9995 2.82009 11.0391 2.8905 11.1095L3.75 11.9698V9.875C3.75 9.77554 3.78951 9.68016 3.85984 9.60983C3.93016 9.53951 4.02554 9.5 4.125 9.5C4.22446 9.5 4.31984 9.53951 4.39016 9.60983C4.46049 9.68016 4.5 9.77554 4.5 9.875V11.9698L5.3595 11.1095C5.42991 11.0391 5.52542 10.9995 5.625 10.9995C5.72458 10.9995 5.82009 11.0391 5.8905 11.1095C5.96092 11.1799 6.00047 11.2754 6.00047 11.375C6.00047 11.4746 5.96092 11.5701 5.8905 11.6405L4.3905 13.1405C4.32059 13.2102 4.22599 13.2496 4.12725 13.25H4.12275C4.025 13.2494 3.93135 13.2106 3.86175 13.142L3.8595 13.1398L2.3595 11.6397V11.6405Z" fill="#19335A"/>
</svg>
