<svg width="15" height="16" viewBox="0 0 15 16" fill="none" xmlns="http://www.w3.org/2000/svg">
<path d="M13.8 7.83125C13.8 7.83125 11.4375 3.5 7.49995 3.5C3.56245 3.5 1.19995 7.83125 1.19995 7.83125C1.19995 7.83125 3.56245 12.1625 7.49995 12.1625C11.4375 12.1625 13.8 7.83125 13.8 7.83125Z" fill="#19335A"/>
<path d="M7.4999 5.86245C6.97776 5.86245 6.477 6.06987 6.10779 6.43908C5.73857 6.8083 5.53115 7.30906 5.53115 7.8312C5.53115 8.35335 5.73857 8.85411 6.10779 9.22332C6.477 9.59253 6.97776 9.79995 7.4999 9.79995C8.02205 9.79995 8.52281 9.59253 8.89202 9.22332C9.26123 8.85411 9.46865 8.35335 9.46865 7.8312C9.46865 7.30906 9.26123 6.8083 8.89202 6.43908C8.52281 6.06987 8.02205 5.86245 7.4999 5.86245ZM4.74365 7.8312C4.74365 7.1002 5.03404 6.39914 5.55094 5.88224C6.06784 5.36534 6.7689 5.07495 7.4999 5.07495C8.23091 5.07495 8.93197 5.36534 9.44887 5.88224C9.96576 6.39914 10.2562 7.1002 10.2562 7.8312C10.2562 8.5622 9.96576 9.26327 9.44887 9.78016C8.93197 10.2971 8.23091 10.5875 7.4999 10.5875C6.7689 10.5875 6.06784 10.2971 5.55094 9.78016C5.03404 9.26327 4.74365 8.5622 4.74365 7.8312Z" fill="white"/>
</svg>
