<svg width="20" height="20" viewBox="0 0 20 20" fill="none" xmlns="http://www.w3.org/2000/svg">
<path fill-rule="evenodd" clip-rule="evenodd" d="M5.77793 4.03322C5.17007 3.47037 4.22102 3.50686 3.65817 4.11471C3.09532 4.72257 3.13181 5.67162 3.73966 6.23447L7.77531 9.97131L4.03491 14.0065C3.47174 14.6141 3.50772 15.5631 4.11528 16.1263C4.72284 16.6895 5.6719 16.6535 6.23508 16.0459L9.97655 12.0096L14.0121 15.7464C14.62 16.3092 15.569 16.2727 16.1319 15.6649C16.6947 15.057 16.6583 14.108 16.0504 13.5451L12.016 9.80941L15.7524 5.77849C16.3156 5.17093 16.2796 4.22187 15.672 3.6587C15.0645 3.09552 14.1154 3.13151 13.5522 3.73907L9.81474 7.77114L5.77793 4.03322Z" fill="#FFAB00"/>
</svg>
