<svg width="25" height="25" viewBox="0 0 25 25" fill="none" xmlns="http://www.w3.org/2000/svg">
<path fill-rule="evenodd" clip-rule="evenodd" d="M9.9403 3.67164C9.9403 3.3007 9.6396 3 9.26866 3C8.89772 3 8.59702 3.3007 8.59702 3.67164V4.86566H7.40299C4.97128 4.86566 3 6.83694 3 9.26864V11.1343V18.597C3 21.0287 4.97128 23 7.40299 23H18.597C21.0287 23 23 21.0287 23 18.597V11.1343V9.26864C23 6.83694 21.0287 4.86566 18.597 4.86566H17.403V3.67164C17.403 3.3007 17.1023 3 16.7314 3C16.3604 3 16.0597 3.3007 16.0597 3.67164V4.86566H9.9403V3.67164ZM8.59702 6.20894V7.40299C8.59702 7.77393 8.89772 8.07463 9.26866 8.07463C9.6396 8.07463 9.9403 7.77393 9.9403 7.40299V6.20894H16.0597V7.40299C16.0597 7.77393 16.3604 8.07463 16.7314 8.07463C17.1023 8.07463 17.403 7.77393 17.403 7.40299V6.20894H18.597C20.2869 6.20894 21.6567 7.57882 21.6567 9.26864V10.4627H4.34328V9.26864C4.34328 7.57882 5.71316 6.20894 7.40299 6.20894H8.59702ZM4.34328 11.806V18.597C4.34328 20.2868 5.71316 21.6567 7.40299 21.6567H18.597C20.2869 21.6567 21.6567 20.2868 21.6567 18.597V11.806H4.34328Z" fill="black"/>
</svg>
