<svg width="20" height="20" viewBox="0 0 20 20" fill="none" xmlns="http://www.w3.org/2000/svg">
<g clip-path="url(#clip0_2503_9594)">
<path d="M10.9797 9.96697L15.8397 5.10697C15.9489 4.97944 16.006 4.81539 15.9995 4.6476C15.993 4.47982 15.9235 4.32066 15.8047 4.20193C15.686 4.0832 15.5269 4.01364 15.3591 4.00716C15.1913 4.00068 15.0272 4.05775 14.8997 4.16697L10.0397 9.02697L5.1797 4.1603C5.05216 4.05109 4.88811 3.99402 4.72033 4.0005C4.55254 4.00698 4.39338 4.07653 4.27465 4.19526C4.15592 4.31399 4.08637 4.47315 4.07989 4.64094C4.07341 4.80872 4.13048 4.97277 4.2397 5.1003L9.0997 9.96697L4.23303 14.827C4.16324 14.8867 4.10656 14.9603 4.06655 15.043C4.02653 15.1257 4.00404 15.2158 4.0005 15.3076C3.99695 15.3994 4.01242 15.491 4.04594 15.5765C4.07945 15.6621 4.13029 15.7398 4.19526 15.8047C4.26023 15.8697 4.33793 15.9205 4.42348 15.9541C4.50903 15.9876 4.60059 16.003 4.6924 15.9995C4.78421 15.996 4.8743 15.9735 4.95701 15.9335C5.03972 15.8934 5.11326 15.8368 5.17303 15.767L10.0397 10.907L14.8997 15.767C15.0272 15.8762 15.1913 15.9333 15.3591 15.9268C15.5269 15.9203 15.686 15.8507 15.8047 15.732C15.9235 15.6133 15.993 15.4541 15.9995 15.2863C16.006 15.1186 15.9489 14.9545 15.8397 14.827L10.9797 9.96697Z" fill="white"/>
</g>
<defs>
<clipPath id="clip0_2503_9594">
<rect width="20" height="20" fill="white"/>
</clipPath>
</defs>
</svg>
