<svg width="15" height="15" viewBox="0 0 15 15" fill="none" xmlns="http://www.w3.org/2000/svg">
<g clip-path="url(#clip0_1632_574)">
<path d="M8.08741 7.5L11.1249 4.4625C11.1932 4.38279 11.2288 4.28026 11.2248 4.17539C11.2207 4.07053 11.1773 3.97105 11.1031 3.89685C11.0289 3.82264 10.9294 3.77917 10.8245 3.77512C10.7196 3.77107 10.6171 3.80674 10.5374 3.875L7.49991 6.9125L4.46241 3.87083C4.3827 3.80257 4.28017 3.7669 4.1753 3.77095C4.07044 3.775 3.97096 3.81848 3.89676 3.89268C3.82255 3.96689 3.77908 4.06636 3.77503 4.17123C3.77098 4.27609 3.80665 4.37862 3.87491 4.45833L6.91241 7.5L3.87074 10.5375C3.82712 10.5749 3.7917 10.6208 3.76669 10.6725C3.74168 10.7242 3.72762 10.7805 3.72541 10.8379C3.72319 10.8953 3.73286 10.9525 3.75381 11.006C3.77476 11.0594 3.80653 11.108 3.84714 11.1486C3.88774 11.1892 3.9363 11.221 3.98977 11.2419C4.04324 11.2629 4.10046 11.2725 4.15785 11.2703C4.21523 11.2681 4.27153 11.2541 4.32323 11.2291C4.37492 11.204 4.42089 11.1686 4.45824 11.125L7.49991 8.0875L10.5374 11.125C10.6171 11.1933 10.7196 11.2289 10.8245 11.2249C10.9294 11.2208 11.0289 11.1774 11.1031 11.1032C11.1773 11.0289 11.2207 10.9295 11.2248 10.8246C11.2288 10.7197 11.1932 10.6172 11.1249 10.5375L8.08741 7.5Z" fill="white"/>
</g>
<defs>
<clipPath id="clip0_1632_574">
<rect width="15" height="15" fill="white"/>
</clipPath>
</defs>
</svg>
