<svg width="25" height="25" viewBox="0 0 25 25" fill="none" xmlns="http://www.w3.org/2000/svg">
<path d="M23 12.2188C23 12.2188 19.0625 5 12.5 5C5.9375 5 2 12.2188 2 12.2188C2 12.2188 5.9375 19.4375 12.5 19.4375C19.0625 19.4375 23 12.2188 23 12.2188ZM3.53956 12.2188C4.17418 11.2542 4.90409 10.3559 5.71831 9.53731C7.4075 7.8455 9.7175 6.3125 12.5 6.3125C15.2825 6.3125 17.5912 7.8455 19.283 9.53731C20.0972 10.3559 20.8271 11.2542 21.4618 12.2188C21.3856 12.3329 21.3016 12.4589 21.2058 12.5968C20.7661 13.2268 20.1164 14.0668 19.283 14.9002C17.5912 16.592 15.2812 18.125 12.5 18.125C9.7175 18.125 7.40881 16.592 5.717 14.9002C4.90279 14.0816 4.17287 13.1833 3.53825 12.2188H3.53956Z" fill="#19335A"/>
<path d="M12.5 8.9375C11.6298 8.9375 10.7952 9.2832 10.1798 9.89856C9.56445 10.5139 9.21875 11.3485 9.21875 12.2188C9.21875 13.089 9.56445 13.9236 10.1798 14.5389C10.7952 15.1543 11.6298 15.5 12.5 15.5C13.3702 15.5 14.2048 15.1543 14.8202 14.5389C15.4355 13.9236 15.7812 13.089 15.7812 12.2188C15.7812 11.3485 15.4355 10.5139 14.8202 9.89856C14.2048 9.2832 13.3702 8.9375 12.5 8.9375ZM7.90625 12.2188C7.90625 11.0004 8.39023 9.83197 9.25173 8.97048C10.1132 8.10898 11.2817 7.625 12.5 7.625C13.7183 7.625 14.8868 8.10898 15.7483 8.97048C16.6098 9.83197 17.0938 11.0004 17.0938 12.2188C17.0938 13.4371 16.6098 14.6055 15.7483 15.467C14.8868 16.3285 13.7183 16.8125 12.5 16.8125C11.2817 16.8125 10.1132 16.3285 9.25173 15.467C8.39023 14.6055 7.90625 13.4371 7.90625 12.2188Z" fill="#19335A"/>
<path fill-rule="evenodd" clip-rule="evenodd" d="M20.3536 4.35348C20.5488 4.54874 20.5488 4.86532 20.3536 5.06058L5.06066 20.3535C4.8654 20.5487 4.54882 20.5487 4.35355 20.3535C4.15829 20.1582 4.15829 19.8416 4.35355 19.6464L19.6464 4.35348C19.8417 4.15822 20.1583 4.15822 20.3536 4.35348Z" fill="#19335A"/>
</svg>
