<svg width="25" height="25" viewBox="0 0 25 25" fill="none" xmlns="http://www.w3.org/2000/svg">
<rect x="10.4492" y="4.16667" width="12.4674" height="1.04167" rx="0.520833" fill="#19335A"/>
<rect x="10.4492" y="7.29167" width="10.3895" height="1.04167" rx="0.520833" fill="#19335A"/>
<rect x="10.4492" y="10.4167" width="8.31163" height="1.04167" rx="0.520833" fill="#19335A"/>
<rect x="10.4492" y="13.5417" width="6.23372" height="1.04167" rx="0.520833" fill="#19335A"/>
<path d="M6.1875 4.46875C6.1875 4.19261 5.96364 3.96875 5.6875 3.96875C5.41136 3.96875 5.1875 4.19261 5.1875 4.46875L6.1875 4.46875ZM5.33395 19.8536C5.52921 20.0488 5.84579 20.0488 6.04105 19.8536L9.22303 16.6716C9.4183 16.4763 9.4183 16.1597 9.22303 15.9645C9.02777 15.7692 8.71119 15.7692 8.51593 15.9645L5.6875 18.7929L2.85907 15.9645C2.66381 15.7692 2.34723 15.7692 2.15197 15.9645C1.9567 16.1597 1.9567 16.4763 2.15197 16.6716L5.33395 19.8536ZM5.1875 4.46875L5.1875 19.5L6.1875 19.5L6.1875 4.46875L5.1875 4.46875Z" fill="#19335A"/>
</svg>
