<svg width="16" height="16" viewBox="0 0 16 16" fill="none" xmlns="http://www.w3.org/2000/svg">
<path d="M8.9375 13.625H7.0625C6.81386 13.625 6.5754 13.5262 6.39959 13.3504C6.22377 13.1746 6.125 12.9361 6.125 12.6875V9.12969L2.65156 5.65625C2.47551 5.48124 2.37605 5.24355 2.375 4.99531V3.3125C2.375 3.06386 2.47377 2.8254 2.64959 2.64959C2.8254 2.47377 3.06386 2.375 3.3125 2.375H12.6875C12.9361 2.375 13.1746 2.47377 13.3504 2.64959C13.5262 2.8254 13.625 3.06386 13.625 3.3125V4.99531C13.624 5.24355 13.5245 5.48124 13.3484 5.65625L9.875 9.12969V12.6875C9.875 12.9361 9.77623 13.1746 9.60041 13.3504C9.4246 13.5262 9.18614 13.625 8.9375 13.625ZM3.3125 3.3125V4.99531L7.0625 8.74531V12.6875H8.9375V8.74531L12.6875 4.99531V3.3125H3.3125Z" fill="#19335A"/>
</svg>
