<svg width="15" height="15" viewBox="0 0 15 15" fill="none" xmlns="http://www.w3.org/2000/svg">
<path d="M6.25 8.125H1.875C1.70924 8.125 1.55027 8.19085 1.43306 8.30806C1.31585 8.42527 1.25 8.58424 1.25 8.75V13.125C1.25 13.2908 1.31585 13.4497 1.43306 13.5669C1.55027 13.6842 1.70924 13.75 1.875 13.75H6.25C6.41576 13.75 6.57473 13.6842 6.69194 13.5669C6.80915 13.4497 6.875 13.2908 6.875 13.125V8.75C6.875 8.58424 6.80915 8.42527 6.69194 8.30806C6.57473 8.19085 6.41576 8.125 6.25 8.125ZM5.625 12.5H2.5V9.375H5.625V12.5ZM13.125 1.25H8.75C8.58424 1.25 8.42527 1.31585 8.30806 1.43306C8.19085 1.55027 8.125 1.70924 8.125 1.875V6.25C8.125 6.41576 8.19085 6.57473 8.30806 6.69194C8.42527 6.80915 8.58424 6.875 8.75 6.875H13.125C13.2908 6.875 13.4497 6.80915 13.5669 6.69194C13.6842 6.57473 13.75 6.41576 13.75 6.25V1.875C13.75 1.70924 13.6842 1.55027 13.5669 1.43306C13.4497 1.31585 13.2908 1.25 13.125 1.25V1.25ZM12.5 5.625H9.375V2.5H12.5V5.625ZM13.125 8.125H8.75C8.58424 8.125 8.42527 8.19085 8.30806 8.30806C8.19085 8.42527 8.125 8.58424 8.125 8.75V13.125C8.125 13.2908 8.19085 13.4497 8.30806 13.5669C8.42527 13.6842 8.58424 13.75 8.75 13.75H13.125C13.2908 13.75 13.4497 13.6842 13.5669 13.5669C13.6842 13.4497 13.75 13.2908 13.75 13.125V8.75C13.75 8.58424 13.6842 8.42527 13.5669 8.30806C13.4497 8.19085 13.2908 8.125 13.125 8.125ZM12.5 12.5H9.375V9.375H12.5V12.5ZM6.25 1.25H1.875C1.70924 1.25 1.55027 1.31585 1.43306 1.43306C1.31585 1.55027 1.25 1.70924 1.25 1.875V6.25C1.25 6.41576 1.31585 6.57473 1.43306 6.69194C1.55027 6.80915 1.70924 6.875 1.875 6.875H6.25C6.41576 6.875 6.57473 6.80915 6.69194 6.69194C6.80915 6.57473 6.875 6.41576 6.875 6.25V1.875C6.875 1.70924 6.80915 1.55027 6.69194 1.43306C6.57473 1.31585 6.41576 1.25 6.25 1.25V1.25ZM5.625 5.625H2.5V2.5H5.625V5.625Z" fill="#6E8497"/>
</svg>
