<svg width="25" height="25" viewBox="0 0 25 25" fill="none" xmlns="http://www.w3.org/2000/svg">
<path fill-rule="evenodd" clip-rule="evenodd" d="M1.5625 12.5C1.5625 6.45996 6.45996 1.5625 12.5 1.5625C18.54 1.5625 23.4375 6.45996 23.4375 12.5C23.4375 18.54 18.54 23.4375 12.5 23.4375C6.45996 23.4375 1.5625 18.54 1.5625 12.5ZM3.41797 12.5C3.41797 17.5146 7.48535 21.582 12.5 21.582C17.5146 21.582 21.582 17.5146 21.582 12.5C21.582 7.48535 17.5146 3.41797 12.5 3.41797C7.48535 3.41797 3.41797 7.48535 3.41797 12.5ZM11.6714 9.03177C11.4516 8.812 11.3281 8.51393 11.3281 8.20312C11.3281 7.89232 11.4516 7.59425 11.6714 7.37448C11.8911 7.15472 12.1892 7.03125 12.5 7.03125C12.8108 7.03125 13.1089 7.15472 13.3286 7.37448C13.5484 7.59425 13.6719 7.89232 13.6719 8.20312C13.6719 8.51393 13.5484 8.812 13.3286 9.03177C13.1089 9.25153 12.8108 9.375 12.5 9.375C12.1892 9.375 11.8911 9.25153 11.6714 9.03177ZM11.7188 11.1328C11.7188 11.0254 11.8066 10.9375 11.9141 10.9375H13.0859C13.1934 10.9375 13.2812 11.0254 13.2812 11.1328V17.7734C13.2812 17.8809 13.1934 17.9688 13.0859 17.9688H11.9141C11.8066 17.9688 11.7188 17.8809 11.7188 17.7734V11.1328Z" fill="#19335A"/>
</svg>
