<svg width="15" height="15" viewBox="0 0 15 15" fill="none" xmlns="http://www.w3.org/2000/svg">
<path fill-rule="evenodd" clip-rule="evenodd" d="M2.75 2C2.55109 2 2.36032 2.07902 2.21967 2.21967C2.07902 2.36032 2 2.55109 2 2.75V11.75C2 11.9489 2.07902 12.1397 2.21967 12.2803C2.36032 12.421 2.55109 12.5 2.75 12.5C2.94891 12.5 3.13968 12.421 3.28033 12.2803C3.42098 12.1397 3.5 11.9489 3.5 11.75V2.75C3.5 2.55109 3.42098 2.36032 3.28033 2.21967C3.13968 2.07902 2.94891 2 2.75 2V2ZM10.4698 8.96975C10.3331 9.1112 10.2575 9.30065 10.2592 9.4973C10.261 9.69395 10.3398 9.88206 10.4789 10.0211C10.6179 10.1602 10.8061 10.239 11.0027 10.2408C11.1993 10.2425 11.3888 10.1669 11.5302 10.0302L13.7803 7.78025C13.9209 7.6396 13.9998 7.44887 13.9998 7.25C13.9998 7.05113 13.9209 6.8604 13.7803 6.71975L11.5302 4.46975C11.4611 4.39812 11.3783 4.34098 11.2868 4.30167C11.1953 4.26237 11.0969 4.24168 10.9973 4.24081C10.8977 4.23995 10.799 4.25892 10.7068 4.29663C10.6146 4.33434 10.5309 4.39003 10.4605 4.46045C10.39 4.53087 10.3343 4.61461 10.2966 4.70678C10.2589 4.79896 10.2399 4.89772 10.2408 4.9973C10.2417 5.09689 10.2624 5.1953 10.3017 5.2868C10.341 5.37831 10.3981 5.46106 10.4698 5.53025L11.4395 6.5H5.75C5.55109 6.5 5.36032 6.57902 5.21967 6.71967C5.07902 6.86032 5 7.05109 5 7.25C5 7.44891 5.07902 7.63968 5.21967 7.78033C5.36032 7.92098 5.55109 8 5.75 8H11.4395L10.4698 8.96975V8.96975Z" fill="#6E8497"/>
</svg>
