<svg width="15" height="15" viewBox="0 0 15 15" fill="none" xmlns="http://www.w3.org/2000/svg">
<path d="M13.125 12.5569L11.241 10.6733C11.7445 10.0253 11.9821 9.20972 11.9053 8.39269C11.8286 7.57566 11.4433 6.8186 10.828 6.27566C10.2126 5.73273 9.41348 5.44475 8.59325 5.47036C7.77302 5.49598 6.9934 5.83326 6.41313 6.41353C5.83286 6.9938 5.49557 7.77342 5.46996 8.59365C5.44435 9.41388 5.73233 10.213 6.27526 10.8284C6.8182 11.4437 7.57526 11.829 8.39229 11.9057C9.20932 11.9825 10.0249 11.7449 10.6729 11.2414L12.5569 13.125L13.125 12.5569ZM8.70536 11.1161C8.22856 11.1161 7.76248 10.9747 7.36604 10.7098C6.9696 10.4449 6.66061 10.0684 6.47815 9.6279C6.29569 9.1874 6.24795 8.70268 6.34096 8.23505C6.43398 7.76742 6.66358 7.33787 7.00072 7.00072C7.33787 6.66358 7.76742 6.43398 8.23505 6.34096C8.70268 6.24795 9.1874 6.29569 9.6279 6.47815C10.0684 6.66061 10.4449 6.9696 10.7098 7.36604C10.9747 7.76248 11.1161 8.22856 11.1161 8.70536C11.1153 9.34449 10.8611 9.95723 10.4092 10.4092C9.95723 10.8611 9.34449 11.1153 8.70536 11.1161ZM1.875 5.89286H5.08929V6.69643H1.875V5.89286ZM1.875 1.875H8.30357V2.67857H1.875V1.875ZM1.875 3.88393H8.30357V4.6875H1.875V3.88393Z" fill="#636363"/>
</svg>
