<svg width="15" height="15" viewBox="0 0 15 15" fill="none" xmlns="http://www.w3.org/2000/svg">
<path d="M7.49994 2.14286C7.94141 2.14286 8.37297 2.27377 8.74005 2.51904C9.10712 2.76431 9.39322 3.11293 9.56217 3.5208C9.73111 3.92867 9.77532 4.37748 9.68919 4.81047C9.60306 5.24347 9.39047 5.6412 9.0783 5.95337C8.76613 6.26554 8.3684 6.47813 7.93541 6.56426C7.50241 6.65039 7.0536 6.60618 6.64573 6.43724C6.23786 6.26829 5.88925 5.98219 5.64397 5.61512C5.3987 5.24804 5.26779 4.81648 5.26779 4.375C5.26779 3.783 5.50296 3.21525 5.92157 2.79664C6.34018 2.37803 6.90793 2.14286 7.49994 2.14286ZM7.49994 1.25C6.88187 1.25 6.27768 1.43328 5.76378 1.77666C5.24987 2.12004 4.84933 2.6081 4.61281 3.17912C4.37628 3.75014 4.3144 4.37847 4.43498 4.98466C4.55556 5.59085 4.85318 6.14768 5.29022 6.58471C5.72726 7.02175 6.28409 7.31938 6.89028 7.43996C7.49647 7.56054 8.1248 7.49865 8.69582 7.26213C9.26684 7.02561 9.7549 6.62507 10.0983 6.11116C10.4417 5.59726 10.6249 4.99307 10.6249 4.375C10.6249 3.5462 10.2957 2.75134 9.70965 2.16529C9.12359 1.57924 8.32874 1.25 7.49994 1.25ZM11.9642 13.75H11.0714V11.5179C11.0714 11.2247 11.0136 10.9345 10.9015 10.6637C10.7893 10.3928 10.6249 10.1468 10.4176 9.9395C10.2103 9.73223 9.96424 9.56781 9.69343 9.45564C9.42261 9.34346 9.13235 9.28572 8.83922 9.28572H6.16065C5.56865 9.28572 5.00089 9.5209 4.58228 9.9395C4.16367 10.3581 3.9285 10.9259 3.9285 11.5179V13.75H3.03564V11.5179C3.03564 10.6891 3.36489 9.89421 3.95094 9.30816C4.53699 8.72211 5.33185 8.39287 6.16065 8.39287H8.83922C9.66803 8.39287 10.4629 8.72211 11.0489 9.30816C11.635 9.89421 11.9642 10.6891 11.9642 11.5179V13.75Z" fill="#636363"/>
</svg>
