<svg width="15" height="15" viewBox="0 0 15 15" fill="none" xmlns="http://www.w3.org/2000/svg">
<path d="M7.91965 4.51348V7.06591L10.1337 8.345C10.1728 8.3676 10.2072 8.39769 10.2347 8.43356C10.2623 8.46942 10.2825 8.51036 10.2942 8.55404C10.3059 8.59771 10.3089 8.64326 10.303 8.6881C10.2971 8.73293 10.2825 8.77617 10.2599 8.81534C10.2373 8.85451 10.2072 8.88884 10.1713 8.91638C10.1354 8.94392 10.0945 8.96412 10.0508 8.97584C10.0072 8.98756 9.96159 8.99056 9.91676 8.98467C9.87193 8.97878 9.82869 8.96412 9.78952 8.94153L7.40342 7.56493H7.39769L7.38048 7.55346L7.36327 7.54199H7.3518L7.34033 7.52478H7.32886L7.31739 7.50757L7.30591 7.4961L7.29444 7.48463V7.47316L7.28297 7.45595C7.28297 7.45021 7.27724 7.44448 7.27724 7.43874C7.27724 7.43301 7.2715 7.43301 7.2715 7.42727L7.26003 7.41006C7.26003 7.40433 7.26003 7.39859 7.25429 7.39859C7.25442 7.39057 7.25244 7.38266 7.24856 7.37565V7.36418C7.24648 7.36185 7.2449 7.35912 7.24392 7.35616C7.24293 7.35321 7.24256 7.35008 7.24282 7.34697V7.32976C7.24075 7.32743 7.23917 7.32471 7.23818 7.32175C7.23719 7.31879 7.23682 7.31566 7.23708 7.31255V4.51348C7.23708 4.4222 7.27334 4.33467 7.33788 4.27013C7.40242 4.20559 7.48996 4.16933 7.58123 4.16933C7.67251 4.16933 7.76004 4.20559 7.82458 4.27013C7.88912 4.33467 7.92538 4.4222 7.92538 4.51348H7.91965ZM13.3801 5.83271C13.3919 5.8148 13.4016 5.79555 13.4088 5.77536C13.4189 5.7573 13.4266 5.73802 13.4318 5.718C13.4318 5.70079 13.4375 5.67785 13.4375 5.6549V3.36058C13.4375 3.2693 13.4012 3.18177 13.3367 3.11723C13.2722 3.05269 13.1846 3.01643 13.0934 3.01643C13.0021 3.01643 12.9145 3.05269 12.85 3.11723C12.7855 3.18177 12.7492 3.2693 12.7492 3.36058V4.81174L11.3898 3.45235C10.6356 2.69883 9.67486 2.18584 8.62912 1.97822C7.58338 1.7706 6.49956 1.87768 5.51467 2.28591C4.52977 2.69415 3.68801 3.38522 3.0958 4.27176C2.50358 5.1583 2.1875 6.20052 2.1875 7.26667C2.1875 8.33282 2.50358 9.37504 3.0958 10.2616C3.68801 11.1481 4.52977 11.8392 5.51467 12.2474C6.49956 12.6557 7.58338 12.7627 8.62912 12.5551C9.67486 12.3475 10.6356 11.8345 11.3898 11.081C11.4532 11.0157 11.4887 10.9282 11.4887 10.8372C11.4887 10.7462 11.4532 10.6587 11.3898 10.5934C11.3582 10.5607 11.3204 10.5346 11.2785 10.5168C11.2366 10.4989 11.1916 10.4898 11.146 10.4898C11.1005 10.4898 11.0555 10.4989 11.0136 10.5168C10.9717 10.5346 10.9338 10.5607 10.9023 10.5934C10.2444 11.2509 9.40632 11.6986 8.49403 11.8799C7.58174 12.0611 6.63619 11.9678 5.77693 11.6117C4.91766 11.2557 4.18326 10.6528 3.66657 9.87943C3.14989 9.10602 2.87411 8.19679 2.87411 7.26667C2.87411 6.33655 3.14989 5.42731 3.66657 4.65391C4.18326 3.8805 4.91766 3.27766 5.77693 2.92159C6.63619 2.56552 7.58174 2.47222 8.49403 2.65347C9.40632 2.83472 10.2444 3.2824 10.9023 3.9399L12.2617 5.29928H10.799C10.7078 5.29928 10.6202 5.33554 10.5557 5.40008C10.4911 5.46462 10.4549 5.55216 10.4549 5.64343C10.4549 5.73471 10.4911 5.82224 10.5557 5.88678C10.6202 5.95132 10.7078 5.98758 10.799 5.98758H13.1564L13.2195 5.97037L13.2769 5.9417H13.2826L13.3343 5.90154L13.3801 5.84419V5.83271Z" fill="#636363"/>
</svg>
