<svg width="13" height="13" viewBox="0 0 13 13" fill="none" xmlns="http://www.w3.org/2000/svg">
<path fill-rule="evenodd" clip-rule="evenodd" d="M7.10795 0.999472C7.10766 0.447187 6.65971 -0.000291608 6.10742 0C5.55514 0.000291894 5.10766 0.448244 5.10795 1.00053L5.11012 5.10811H1C0.447715 5.10811 0 5.55582 0 6.10811C0 6.66039 0.447715 7.10811 1 7.10811H5.11118L5.11335 11.2167C5.11364 11.769 5.56159 12.2165 6.11388 12.2162C6.66616 12.2159 7.11364 11.768 7.11335 11.2157L7.11118 7.10811H11.2162C11.7685 7.10811 12.2162 6.66039 12.2162 6.10811C12.2162 5.55582 11.7685 5.10811 11.2162 5.10811H7.11012L7.10795 0.999472Z" fill="#FFAB00"/>
</svg>
