<svg width="12" height="15" viewBox="0 0 12 15" fill="none" xmlns="http://www.w3.org/2000/svg">
<path fill-rule="evenodd" clip-rule="evenodd" d="M12.0003 1C12.0003 0.447715 11.5526 0 11.0003 0C10.448 0 10.0003 0.447715 10.0003 1V6.14593L2.96254 0.804738C2.30307 0.30425 1.362 0.433679 0.8606 1.09383C0.359195 1.75397 0.487327 2.69485 1.14679 3.19534L6.39551 7.17877L1.01602 11.8618C0.390753 12.4061 0.324435 13.3536 0.867892 13.9781C1.41135 14.6026 2.35878 14.6676 2.98405 14.1233L10.0003 8.01544V14C10.0003 14.5523 10.448 15 11.0003 15C11.5526 15 12.0003 14.5523 12.0003 14V1Z" fill="#FFAB00"/>
</svg>
