<svg width="75" height="75" viewBox="0 0 75 75" fill="none" xmlns="http://www.w3.org/2000/svg">
<path fill-rule="evenodd" clip-rule="evenodd" d="M11.7278 37.5C11.7278 23.2661 23.2666 11.7273 37.5005 11.7273C51.7344 11.7273 63.2732 23.2661 63.2732 37.5C63.2732 51.7339 51.7344 63.2727 37.5005 63.2727C23.2666 63.2727 11.7278 51.7339 11.7278 37.5ZM37.5005 6C20.1035 6 6.00049 20.103 6.00049 37.5C6.00049 54.897 20.1035 69 37.5005 69C54.8975 69 69.0005 54.897 69.0005 37.5C69.0005 20.103 54.8975 6 37.5005 6ZM51.1557 32.174C52.1682 30.9591 52.004 29.1534 50.789 28.1409C49.5741 27.1284 47.7683 27.2926 46.7559 28.5075L34.4452 43.2804L28.0716 36.9068C26.9533 35.7885 25.1401 35.7885 24.0218 36.9068C22.9035 38.0251 22.9035 39.8383 24.0218 40.9566L32.6127 49.5475C33.1816 50.1164 33.9636 50.4198 34.7674 50.3833C35.5711 50.3469 36.3224 49.974 36.8375 49.3559L51.1557 32.174Z" fill="#007D2E"/>
</svg>
