<svg width="20" height="20" viewBox="0 0 20 20" fill="none" xmlns="http://www.w3.org/2000/svg">
<path d="M14.1663 7.50008V5.83342C14.1663 3.50008 12.333 1.66675 9.99967 1.66675C7.66634 1.66675 5.83301 3.50008 5.83301 5.83342V7.50008C4.41634 7.50008 3.33301 8.58342 3.33301 10.0001V15.8334C3.33301 17.2501 4.41634 18.3334 5.83301 18.3334H14.1663C15.583 18.3334 16.6663 17.2501 16.6663 15.8334V10.0001C16.6663 8.58342 15.583 7.50008 14.1663 7.50008ZM7.49967 5.83342C7.49967 4.41675 8.58301 3.33341 9.99967 3.33341C11.4163 3.33341 12.4997 4.41675 12.4997 5.83342V7.50008H7.49967V5.83342ZM10.9163 12.9167L10.833 13.0001V14.1667C10.833 14.6667 10.4997 15.0001 9.99967 15.0001C9.49967 15.0001 9.16634 14.6667 9.16634 14.1667V13.0001C8.66634 12.5001 8.58301 11.7501 9.08301 11.2501C9.58301 10.7501 10.333 10.6667 10.833 11.1667C11.333 11.5834 11.4163 12.4167 10.9163 12.9167Z" fill="#C11F3D"/>
</svg>
