<svg width="15" height="15" viewBox="0 0 15 15" fill="none" xmlns="http://www.w3.org/2000/svg">
<path d="M10.8 6.00005V4.80005C10.8 3.12005 9.48 1.80005 7.8 1.80005C6.12 1.80005 4.8 3.12005 4.8 4.80005V6.00005C3.78 6.00005 3 6.78005 3 7.80005V12C3 13.02 3.78 13.8 4.8 13.8H10.8C11.82 13.8 12.6 13.02 12.6 12V7.80005C12.6 6.78005 11.82 6.00005 10.8 6.00005ZM6 4.80005C6 3.78005 6.78 3.00005 7.8 3.00005C8.82 3.00005 9.6 3.78005 9.6 4.80005V6.00005H6V4.80005ZM8.46 9.90005L8.4 9.96005V10.8C8.4 11.16 8.16 11.4 7.8 11.4C7.44 11.4 7.2 11.16 7.2 10.8V9.96005C6.84 9.60005 6.78 9.06005 7.14 8.70005C7.5 8.34005 8.04 8.28005 8.4 8.64005C8.76 8.94005 8.82 9.54005 8.46 9.90005Z" fill="white"/>
</svg>
