<svg width="15" height="15" viewBox="0 0 15 15" fill="none" xmlns="http://www.w3.org/2000/svg">
<path d="M13.25 12H5.75M2 3.25H4.5H2ZM13.25 3.25H7H13.25ZM2 7.625H9.5H2ZM13.25 7.625H12H13.25ZM2 12H3.25H2Z" stroke="#6E8497" stroke-width="1.25" stroke-linecap="round"/>
<path d="M5.75 4.5C6.44036 4.5 7 3.94036 7 3.25C7 2.55964 6.44036 2 5.75 2C5.05964 2 4.5 2.55964 4.5 3.25C4.5 3.94036 5.05964 4.5 5.75 4.5Z" stroke="#6E8497" stroke-width="1.25" stroke-linecap="round"/>
<path d="M10.75 8.875C11.4404 8.875 12 8.31536 12 7.625C12 6.93464 11.4404 6.375 10.75 6.375C10.0596 6.375 9.5 6.93464 9.5 7.625C9.5 8.31536 10.0596 8.875 10.75 8.875Z" stroke="#6E8497" stroke-width="1.25" stroke-linecap="round"/>
<path d="M4.5 13.25C5.19036 13.25 5.75 12.6904 5.75 12C5.75 11.3096 5.19036 10.75 4.5 10.75C3.80964 10.75 3.25 11.3096 3.25 12C3.25 12.6904 3.80964 13.25 4.5 13.25Z" stroke="#6E8497" stroke-width="1.25" stroke-linecap="round"/>
</svg>
