<svg width="12" height="15" viewBox="0 0 12 15" fill="none" xmlns="http://www.w3.org/2000/svg">
<path fill-rule="evenodd" clip-rule="evenodd" d="M-0.000311852 1C-0.000311852 0.447715 0.447403 0 0.999688 0C1.55197 0 1.99969 0.447715 1.99969 1V6.14593L9.03746 0.804738C9.69693 0.30425 10.638 0.433679 11.1394 1.09383C11.6408 1.75397 11.5127 2.69485 10.8532 3.19534L5.60449 7.17877L10.984 11.8618C11.6092 12.4061 11.6756 13.3536 11.1321 13.9781C10.5887 14.6026 9.64122 14.6676 9.01595 14.1233L1.99969 8.01544V14C1.99969 14.5523 1.55197 15 0.999688 15C0.447403 15 -0.000311852 14.5523 -0.000311852 14V1Z" fill="#FFAB00"/>
</svg>
