<svg width="25" height="25" viewBox="0 0 25 25" fill="none" xmlns="http://www.w3.org/2000/svg">
<rect x="3" y="14" width="19" height="8" fill="#C11F3D"/>
<path fill-rule="evenodd" clip-rule="evenodd" d="M21.1001 9.375L16.4015 4.21875L15.9002 4H4.84125L4.125 4.78125V13.375H5.5575V5.5625H14.1525V11.0312L14.8687 11.8125H19.8825V13.375H21.315V9.9375L21.1001 9.375ZM15.585 10.25V5.5625L19.8825 10.25H15.585Z" fill="black"/>
<path d="M7.267 15.06C7.723 15.06 8.113 15.138 8.437 15.294C8.761 15.444 9.01 15.663 9.184 15.951C9.364 16.233 9.454 16.575 9.454 16.977C9.454 17.379 9.364 17.724 9.184 18.012C9.01 18.294 8.761 18.513 8.437 18.669C8.113 18.819 7.723 18.894 7.267 18.894H6.016V21H4.774V15.06H7.267ZM7.078 17.913C7.45 17.913 7.729 17.835 7.915 17.679C8.101 17.517 8.194 17.283 8.194 16.977C8.194 16.665 8.101 16.431 7.915 16.275C7.729 16.119 7.45 16.041 7.078 16.041H6.016V17.913H7.078ZM12.8874 15.06C13.8174 15.06 14.5374 15.318 15.0474 15.834C15.5574 16.344 15.8124 17.076 15.8124 18.03C15.8124 18.978 15.5574 19.71 15.0474 20.226C14.5374 20.742 13.8174 21 12.8874 21H10.5924V15.06H12.8874ZM12.8244 20.01C13.3884 20.01 13.8114 19.842 14.0934 19.506C14.3814 19.164 14.5254 18.672 14.5254 18.03C14.5254 17.388 14.3814 16.899 14.0934 16.563C13.8114 16.221 13.3884 16.05 12.8244 16.05H11.8344V20.01H12.8244ZM21.5071 16.059H18.3031V17.571H20.8321V18.57H18.3031V21H17.0611V15.06H21.5071V16.059Z" fill="white"/>
</svg>
