<svg width="26" height="25" viewBox="0 0 26 25" fill="none" xmlns="http://www.w3.org/2000/svg">
<path d="M16.908 3.125C17.2158 3.125 17.5206 3.18562 17.8049 3.30341C18.0893 3.42119 18.3477 3.59383 18.5653 3.81147C18.7829 4.02911 18.9556 4.28748 19.0733 4.57184C19.1911 4.85619 19.2518 5.16096 19.2518 5.46875V6.25312H20.033C20.9309 6.25368 21.7919 6.61046 22.427 7.24517C23.0621 7.87988 23.4194 8.74065 23.4205 9.63854L23.4236 15.8854C23.4238 16.1931 23.3633 16.4977 23.2457 16.782C23.1281 17.0663 22.9556 17.3246 22.7382 17.5423C22.5208 17.7599 22.2626 17.9326 21.9784 18.0504C21.6942 18.1683 21.3896 18.229 21.082 18.2292H19.2497V19.5312C19.2497 20.1529 19.0027 20.749 18.5632 21.1885C18.1237 21.6281 17.5275 21.875 16.9059 21.875H9.09342C8.47182 21.875 7.87568 21.6281 7.43614 21.1885C6.9966 20.749 6.74967 20.1529 6.74967 19.5312V18.2292H4.92676C4.30516 18.2292 3.70901 17.9822 3.26948 17.5427C2.82994 17.1032 2.58301 16.507 2.58301 15.8854V9.63958C2.58301 8.74171 2.93968 7.88062 3.57457 7.24573C4.20946 6.61084 5.07056 6.25417 5.96842 6.25417L6.74863 6.25312L6.74967 5.46875C6.74967 4.84715 6.9966 4.25101 7.43614 3.81147C7.87568 3.37193 8.47182 3.125 9.09342 3.125H16.908ZM16.9059 14.0625H9.09342C8.88622 14.0625 8.68751 14.1448 8.541 14.2913C8.39448 14.4378 8.31217 14.6365 8.31217 14.8438V19.5312C8.31217 19.9625 8.66217 20.3125 9.09342 20.3125H16.9059C17.1131 20.3125 17.3118 20.2302 17.4584 20.0837C17.6049 19.9372 17.6872 19.7385 17.6872 19.5312V14.8438C17.6872 14.6365 17.6049 14.4378 17.4584 14.2913C17.3118 14.1448 17.1131 14.0625 16.9059 14.0625ZM16.908 4.6875H9.09342C8.88622 4.6875 8.68751 4.76981 8.541 4.91632C8.39448 5.06284 8.31217 5.26155 8.31217 5.46875L8.31113 6.25312H17.6893V5.46875C17.6893 5.26155 17.6069 5.06284 17.4604 4.91632C17.3139 4.76981 17.1152 4.6875 16.908 4.6875Z" fill="black"/>
</svg>
