<svg width="25" height="25" viewBox="0 0 25 25" fill="none" xmlns="http://www.w3.org/2000/svg">
<path d="M13.6719 2.34375V4.6875C13.6719 4.9983 13.5484 5.29637 13.3286 5.51614C13.1089 5.73591 12.8108 5.85938 12.5 5.85938C12.1892 5.85938 11.8911 5.73591 11.6714 5.51614C11.4516 5.29637 11.3281 4.9983 11.3281 4.6875V2.34375C11.3281 2.03295 11.4516 1.73488 11.6714 1.51511C11.8911 1.29534 12.1892 1.17188 12.5 1.17188C12.8108 1.17188 13.1089 1.29534 13.3286 1.51511C13.5484 1.73488 13.6719 2.03295 13.6719 2.34375ZM17.1875 5.46875C16.8767 5.46875 16.5786 5.59222 16.3589 5.81198C16.1391 6.03175 16.0156 6.32982 16.0156 6.64062V8.98438C16.0156 9.29518 16.1391 9.59325 16.3589 9.81302C16.5786 10.0328 16.8767 10.1562 17.1875 10.1562C17.4983 10.1562 17.7964 10.0328 18.0161 9.81302C18.2359 9.59325 18.3594 9.29518 18.3594 8.98438V6.64062C18.3594 6.32982 18.2359 6.03175 18.0161 5.81198C17.7964 5.59222 17.4983 5.46875 17.1875 5.46875ZM12.5 19.1406C12.1892 19.1406 11.8911 19.2641 11.6714 19.4839C11.4516 19.7036 11.3281 20.0017 11.3281 20.3125V22.6562C11.3281 22.9671 11.4516 23.2651 11.6714 23.4849C11.8911 23.7047 12.1892 23.8281 12.5 23.8281C12.8108 23.8281 13.1089 23.7047 13.3286 23.4849C13.5484 23.2651 13.6719 22.9671 13.6719 22.6562V20.3125C13.6719 20.0017 13.5484 19.7036 13.3286 19.4839C13.1089 19.2641 12.8108 19.1406 12.5 19.1406ZM12.5 7.42188C12.1892 7.42188 11.8911 7.54534 11.6714 7.76511C11.4516 7.98488 11.3281 8.28295 11.3281 8.59375V16.4062C11.3281 16.7171 11.4516 17.0151 11.6714 17.2349C11.8911 17.4547 12.1892 17.5781 12.5 17.5781C12.8108 17.5781 13.1089 17.4547 13.3286 17.2349C13.5484 17.0151 13.6719 16.7171 13.6719 16.4062V8.59375C13.6719 8.28295 13.5484 7.98488 13.3286 7.76511C13.1089 7.54534 12.8108 7.42188 12.5 7.42188ZM7.8125 5.46875C7.5017 5.46875 7.20363 5.59222 6.98386 5.81198C6.76409 6.03175 6.64062 6.32982 6.64062 6.64062V12.1094C6.64062 12.4202 6.76409 12.7182 6.98386 12.938C7.20363 13.1578 7.5017 13.2812 7.8125 13.2812C8.1233 13.2812 8.42137 13.1578 8.64114 12.938C8.86091 12.7182 8.98438 12.4202 8.98438 12.1094V6.64062C8.98438 6.32982 8.86091 6.03175 8.64114 5.81198C8.42137 5.59222 8.1233 5.46875 7.8125 5.46875ZM17.1875 11.7188C16.8767 11.7188 16.5786 11.8422 16.3589 12.062C16.1391 12.2818 16.0156 12.5798 16.0156 12.8906V18.3594C16.0156 18.6702 16.1391 18.9682 16.3589 19.188C16.5786 19.4078 16.8767 19.5312 17.1875 19.5312C17.4983 19.5312 17.7964 19.4078 18.0161 19.188C18.2359 18.9682 18.3594 18.6702 18.3594 18.3594V12.8906C18.3594 12.5798 18.2359 12.2818 18.0161 12.062C17.7964 11.8422 17.4983 11.7188 17.1875 11.7188ZM3.125 10.1562C2.8142 10.1562 2.51613 10.2797 2.29636 10.4995C2.07659 10.7193 1.95312 11.0173 1.95312 11.3281V13.6719C1.95312 13.9827 2.07659 14.2807 2.29636 14.5005C2.51613 14.7203 2.8142 14.8438 3.125 14.8438C3.4358 14.8438 3.73387 14.7203 3.95364 14.5005C4.17341 14.2807 4.29688 13.9827 4.29688 13.6719V11.3281C4.29688 11.0173 4.17341 10.7193 3.95364 10.4995C3.73387 10.2797 3.4358 10.1562 3.125 10.1562ZM7.8125 14.8438C7.5017 14.8438 7.20363 14.9672 6.98386 15.187C6.76409 15.4068 6.64062 15.7048 6.64062 16.0156V18.3594C6.64062 18.6702 6.76409 18.9682 6.98386 19.188C7.20363 19.4078 7.5017 19.5312 7.8125 19.5312C8.1233 19.5312 8.42137 19.4078 8.64114 19.188C8.86091 18.9682 8.98438 18.6702 8.98438 18.3594V16.0156C8.98438 15.7048 8.86091 15.4068 8.64114 15.187C8.42137 14.9672 8.1233 14.8438 7.8125 14.8438ZM21.875 10.1562C21.5642 10.1562 21.2661 10.2797 21.0464 10.4995C20.8266 10.7193 20.7031 11.0173 20.7031 11.3281V13.6719C20.7031 13.9827 20.8266 14.2807 21.0464 14.5005C21.2661 14.7203 21.5642 14.8438 21.875 14.8438C22.1858 14.8438 22.4839 14.7203 22.7036 14.5005C22.9234 14.2807 23.0469 13.9827 23.0469 13.6719V11.3281C23.0469 11.0173 22.9234 10.7193 22.7036 10.4995C22.4839 10.2797 22.1858 10.1562 21.875 10.1562Z" fill="#19335A"/>
</svg>
