<svg width="16" height="16" viewBox="0 0 16 16" fill="none" xmlns="http://www.w3.org/2000/svg">
<path d="M11.9859 9.34922C11.853 9.21633 11.6376 9.21633 11.5047 9.34922L10.5078 10.3461V3.74609C10.5078 3.55625 10.3539 3.40234 10.1641 3.40234C9.97425 3.40234 9.82035 3.55625 9.82035 3.74609V10.3461L8.82348 9.34922C8.69058 9.21633 8.47512 9.21633 8.34223 9.34922C8.20933 9.48211 8.20933 9.69758 8.34223 9.83047L10.1641 11.6523L11.9859 9.83047C12.1188 9.69758 12.1188 9.48211 11.9859 9.34922ZM5.3516 3.40234L3.52973 5.22422C3.39683 5.35711 3.39683 5.57258 3.52973 5.70547C3.66262 5.83836 3.87808 5.83836 4.01098 5.70547L5.00785 4.70859V11.3086C5.00785 11.4984 5.16175 11.6523 5.3516 11.6523C5.54145 11.6523 5.69535 11.4984 5.69535 11.3086V4.70859L6.69223 5.70547C6.82512 5.83836 7.04058 5.83836 7.17348 5.70547C7.30637 5.57258 7.30637 5.35711 7.17348 5.22422L5.3516 3.40234Z" fill="#19335A" stroke="#19335A" stroke-width="0.5"/>
</svg>
