<svg width="15" height="16" viewBox="0 0 15 16" fill="none" xmlns="http://www.w3.org/2000/svg">
<path fill-rule="evenodd" clip-rule="evenodd" d="M10.3125 2.84375H11.7188C11.9674 2.84375 12.2058 2.94252 12.3817 3.11834C12.5575 3.29415 12.6562 3.53261 12.6562 3.78125V13.625C12.6562 13.8736 12.5575 14.1121 12.3817 14.2879C12.2058 14.4637 11.9674 14.5625 11.7188 14.5625H3.28125C3.03261 14.5625 2.79415 14.4637 2.61834 14.2879C2.44252 14.1121 2.34375 13.8736 2.34375 13.625V3.78125C2.34375 3.53261 2.44252 3.29415 2.61834 3.11834C2.79415 2.94252 3.03261 2.84375 3.28125 2.84375H4.6875V2.375C4.6875 2.12636 4.78627 1.8879 4.96209 1.71209C5.1379 1.53627 5.37636 1.4375 5.625 1.4375H9.375C9.62364 1.4375 9.8621 1.53627 10.0379 1.71209C10.2137 1.8879 10.3125 2.12636 10.3125 2.375V2.84375ZM9.375 2.375H5.625V4.25H9.375V2.375ZM8.4375 8.9375H4.6875V9.875H8.4375V8.9375ZM10.3125 6.59375H4.6875V7.53125H10.3125V6.59375ZM7.03125 11.2812H4.6875V12.2188H7.03125V11.2812Z" fill="#004884"/>
</svg>
