<svg width="25" height="25" viewBox="0 0 25 25" fill="none" xmlns="http://www.w3.org/2000/svg">
<path d="M12.5 1C15.6245 1 16.0144 1.0115 17.2403 1.069C18.465 1.1265 19.2988 1.31855 20.0325 1.60375C20.7915 1.89585 21.4309 2.29145 22.0703 2.9297C22.6551 3.50458 23.1075 4.19998 23.3962 4.9675C23.6803 5.70005 23.8735 6.53495 23.931 7.7597C23.9851 8.9856 24 9.37545 24 12.5C24 15.6245 23.9885 16.0144 23.931 17.2403C23.8735 18.465 23.6803 19.2988 23.3962 20.0325C23.1084 20.8004 22.6558 21.496 22.0703 22.0703C21.4953 22.6549 20.7999 23.1073 20.0325 23.3962C19.2999 23.6803 18.465 23.8735 17.2403 23.931C16.0144 23.9851 15.6245 24 12.5 24C9.37545 24 8.9856 23.9885 7.7597 23.931C6.53495 23.8735 5.7012 23.6803 4.9675 23.3962C4.19967 23.1081 3.50416 22.6556 2.9297 22.0703C2.34482 21.4955 1.89232 20.8001 1.60375 20.0325C1.31855 19.2999 1.1265 18.465 1.069 17.2403C1.01495 16.0144 1 15.6245 1 12.5C1 9.37545 1.0115 8.9856 1.069 7.7597C1.1265 6.5338 1.31855 5.7012 1.60375 4.9675C1.89152 4.19951 2.34412 3.50392 2.9297 2.9297C3.50432 2.34462 4.19979 1.89209 4.9675 1.60375C5.7012 1.31855 6.5338 1.1265 7.7597 1.069C8.9856 1.01495 9.37545 1 12.5 1ZM12.5 6.75C10.975 6.75 9.51247 7.3558 8.43414 8.43414C7.3558 9.51247 6.75 10.975 6.75 12.5C6.75 14.025 7.3558 15.4875 8.43414 16.5659C9.51247 17.6442 10.975 18.25 12.5 18.25C14.025 18.25 15.4875 17.6442 16.5659 16.5659C17.6442 15.4875 18.25 14.025 18.25 12.5C18.25 10.975 17.6442 9.51247 16.5659 8.43414C15.4875 7.3558 14.025 6.75 12.5 6.75V6.75ZM19.975 6.4625C19.975 6.08125 19.8236 5.71562 19.554 5.44603C19.2844 5.17645 18.9187 5.025 18.5375 5.025C18.1563 5.025 17.7906 5.17645 17.521 5.44603C17.2514 5.71562 17.1 6.08125 17.1 6.4625C17.1 6.84375 17.2514 7.20938 17.521 7.47897C17.7906 7.74855 18.1563 7.9 18.5375 7.9C18.9187 7.9 19.2844 7.74855 19.554 7.47897C19.8236 7.20938 19.975 6.84375 19.975 6.4625ZM12.5 9.05C13.415 9.05 14.2925 9.41348 14.9395 10.0605C15.5865 10.7075 15.95 11.585 15.95 12.5C15.95 13.415 15.5865 14.2925 14.9395 14.9395C14.2925 15.5865 13.415 15.95 12.5 15.95C11.585 15.95 10.7075 15.5865 10.0605 14.9395C9.41348 14.2925 9.05 13.415 9.05 12.5C9.05 11.585 9.41348 10.7075 10.0605 10.0605C10.7075 9.41348 11.585 9.05 12.5 9.05V9.05Z" fill="#19335A"/>
</svg>
