<svg width="25" height="25" viewBox="0 0 25 25" fill="none" xmlns="http://www.w3.org/2000/svg">
<path d="M12.5 1C9.45001 1 6.52494 2.2116 4.36827 4.36827C2.2116 6.52494 1 9.45001 1 12.5C1 15.55 2.2116 18.4751 4.36827 20.6317C6.52494 22.7884 9.45001 24 12.5 24C15.55 24 18.4751 22.7884 20.6317 20.6317C22.7884 18.4751 24 15.55 24 12.5C24 9.45001 22.7884 6.52494 20.6317 4.36827C18.4751 2.2116 15.55 1 12.5 1V1ZM17.7742 17.5859C17.7251 17.6663 17.6607 17.7363 17.5845 17.7918C17.5084 17.8473 17.422 17.8872 17.3304 17.9092C17.2388 17.9313 17.1437 17.935 17.0506 17.9202C16.9576 17.9054 16.8683 17.8724 16.7881 17.8231C14.087 16.1743 10.6888 15.8005 6.68531 16.7162C6.49984 16.7585 6.30514 16.7254 6.14407 16.6242C5.98299 16.523 5.86872 16.3619 5.82641 16.1764C5.78409 15.9909 5.81718 15.7962 5.91841 15.6352C6.01964 15.4741 6.18071 15.3598 6.36619 15.3175C10.7477 14.317 14.5053 14.7468 17.5356 16.5998C17.6977 16.6991 17.8138 16.8587 17.8586 17.0435C17.9033 17.2284 17.873 17.4234 17.7742 17.5859ZM19.1815 14.455C19.057 14.6576 18.8571 14.8024 18.6258 14.8577C18.3945 14.9129 18.1508 14.8741 17.9481 14.7497C14.8575 12.8507 10.1454 12.3002 6.48838 13.4099C6.26579 13.4628 6.0314 13.4288 5.83303 13.3148C5.63466 13.2008 5.48725 13.0155 5.42087 12.7965C5.35449 12.5776 5.37414 12.3415 5.47581 12.1366C5.57748 11.9316 5.75351 11.7732 5.968 11.6936C10.1439 10.4271 15.3362 11.0409 18.8854 13.2216C19.0882 13.3459 19.2333 13.5457 19.2888 13.777C19.3444 14.0083 19.3058 14.2522 19.1815 14.455ZM19.3022 11.1947C15.5964 8.9925 9.48125 8.78981 5.94212 9.86362C5.66915 9.94636 5.37449 9.91726 5.12297 9.78274C4.87145 9.64822 4.68367 9.41929 4.60094 9.14631C4.51821 8.87334 4.5473 8.57868 4.68182 8.32716C4.81635 8.07564 5.04528 7.88786 5.31825 7.80513C9.37919 6.57319 16.1326 6.81037 20.4005 9.34325C20.646 9.48889 20.8236 9.72609 20.8943 10.0027C20.9649 10.2793 20.9228 10.5726 20.7771 10.8181C20.6315 11.0636 20.3943 11.2413 20.1177 11.3119C19.8411 11.3825 19.5478 11.3404 19.3022 11.1947Z" fill="#19335A"/>
</svg>
