<svg width="25" height="25" viewBox="0 0 25 25" fill="none" xmlns="http://www.w3.org/2000/svg">
<path d="M21.425 2H3.575C2.7 2 2 2.70293 2 3.49372V21.5063C2 22.2971 2.7 23 3.575 23H21.425C22.3 23 23 22.2971 23 21.5063V3.49372C23 2.70293 22.3 2 21.425 2ZM8.2125 19.9247H5.15V9.90795H8.2125V19.9247ZM6.725 8.50209C5.7625 8.50209 4.8875 7.7113 4.8875 6.6569C4.8875 5.60251 5.675 4.81172 6.725 4.81172C7.6875 4.81172 8.5625 5.60251 8.5625 6.6569C8.5625 7.7113 7.6875 8.50209 6.725 8.50209ZM19.9375 19.8368H16.875V14.9163C16.875 13.7741 16.875 12.1925 15.2125 12.1925C13.55 12.1925 13.375 13.5105 13.375 14.7406V19.749H10.3125V9.90795H13.2V11.2259H13.2875C13.725 10.4351 14.775 9.55649 16.2625 9.55649C19.4125 9.55649 20.025 11.6653 20.025 14.3891V19.8368H19.9375Z" fill="#19335A"/>
</svg>
