<svg width="15" height="16" viewBox="0 0 15 16" fill="none" xmlns="http://www.w3.org/2000/svg">
<path d="M13.5938 13.4321L10.0538 9.89208C10.9044 8.87082 11.3286 7.5609 11.2381 6.23484C11.1476 4.90878 10.5493 3.66866 9.56778 2.77247C8.58621 1.87628 7.29692 1.39302 5.96811 1.42321C4.63931 1.4534 3.3733 1.99473 2.43345 2.93458C1.4936 3.87443 0.952273 5.14044 0.92208 6.46924C0.891887 7.79805 1.37515 9.08734 2.27134 10.0689C3.16754 11.0505 4.40765 11.6487 5.73371 11.7393C7.05978 11.8298 8.36969 11.4056 9.39095 10.5549L12.9309 14.0949L13.5938 13.4321ZM1.87501 6.59489C1.87501 5.7605 2.12243 4.94485 2.586 4.25108C3.04956 3.55731 3.70844 3.01658 4.47931 2.69727C5.25019 2.37796 6.09844 2.29442 6.9168 2.4572C7.73515 2.61998 8.48686 3.02178 9.07687 3.61178C9.66687 4.20178 10.0687 4.95349 10.2314 5.77185C10.3942 6.59021 10.3107 7.43846 9.99138 8.20933C9.67207 8.98021 9.13134 9.63909 8.43757 10.1027C7.7438 10.5662 6.92815 10.8136 6.09376 10.8136C4.97526 10.8124 3.90292 10.3675 3.11202 9.57662C2.32112 8.78572 1.87625 7.71339 1.87501 6.59489Z" fill="#3366CC"/>
</svg>
