<svg width="25" height="25" viewBox="0 0 25 25" fill="none" xmlns="http://www.w3.org/2000/svg">
<rect x="3" y="14" width="19" height="8" fill="#3366CC"/>
<path fill-rule="evenodd" clip-rule="evenodd" d="M21.1001 9.375L16.4015 4.21875L15.9002 4H4.84125L4.125 4.78125V13.375H5.5575V5.5625H14.1525V11.0312L14.8687 11.8125H19.8825V13.375H21.315V9.9375L21.1001 9.375ZM15.585 10.25V5.5625L19.8825 10.25H15.585Z" fill="black"/>
<path d="M5.1 20L4.055 16.37H5.0615L5.6775 19.2355L6.3265 16.37H7.1845L7.85 19.23L8.455 16.37H9.4285L8.378 20H7.3495L6.9205 18.24L6.7555 17.3545H6.7445L6.585 18.24L6.1615 20H5.1ZM11.4328 16.315C11.7995 16.315 12.1148 16.3902 12.3788 16.5405C12.6465 16.6872 12.8518 16.8998 12.9948 17.1785C13.1378 17.4572 13.2093 17.7927 13.2093 18.185C13.2093 18.5773 13.1378 18.9128 12.9948 19.1915C12.8518 19.4702 12.6465 19.6847 12.3788 19.835C12.1148 19.9817 11.7995 20.055 11.4328 20.055C11.0662 20.055 10.749 19.9817 10.4813 19.835C10.2137 19.6847 10.0083 19.4702 9.86532 19.1915C9.72232 18.9128 9.65082 18.5773 9.65082 18.185C9.65082 17.7927 9.72232 17.4572 9.86532 17.1785C10.0083 16.8998 10.2137 16.6872 10.4813 16.5405C10.749 16.3902 11.0662 16.315 11.4328 16.315ZM11.4328 17.0575C11.2568 17.0575 11.1083 17.0997 10.9873 17.184C10.8663 17.2683 10.7747 17.3948 10.7123 17.5635C10.65 17.7285 10.6188 17.9357 10.6188 18.185C10.6188 18.4307 10.65 18.6378 10.7123 18.8065C10.7747 18.9752 10.8663 19.1017 10.9873 19.186C11.1083 19.2703 11.2568 19.3125 11.4328 19.3125C11.6088 19.3125 11.7555 19.2703 11.8728 19.186C11.9938 19.1017 12.0855 18.9752 12.1478 18.8065C12.2102 18.6378 12.2413 18.4307 12.2413 18.185C12.2413 17.9357 12.2102 17.7285 12.1478 17.5635C12.0855 17.3948 11.9938 17.2683 11.8728 17.184C11.7555 17.0997 11.6088 17.0575 11.4328 17.0575ZM15.5925 16.37C16.0252 16.37 16.3607 16.4727 16.599 16.678C16.841 16.8797 16.962 17.1492 16.962 17.4865C16.962 17.8568 16.8428 18.1392 16.6045 18.3335C16.3662 18.5278 16.0307 18.625 15.598 18.625L15.51 18.6745H14.7895V20H13.86V16.37H15.5925ZM15.4605 18.0035C15.6438 18.0035 15.7813 17.9668 15.873 17.8935C15.9647 17.8202 16.0105 17.7028 16.0105 17.5415C16.0105 17.3838 15.9647 17.2683 15.873 17.195C15.7813 17.1217 15.6438 17.085 15.4605 17.085H14.7895V18.0035H15.4605ZM16.016 18.2015L17.1765 20H16.1315L15.202 18.4105L16.016 18.2015ZM19.192 16.37C19.7603 16.37 20.1948 16.5277 20.4955 16.843C20.7998 17.1583 20.952 17.6057 20.952 18.185C20.952 18.7643 20.7998 19.2117 20.4955 19.527C20.1948 19.8423 19.7603 20 19.192 20H17.652V16.37H19.192ZM19.0985 19.285C19.4065 19.285 19.6302 19.1933 19.7695 19.01C19.9125 18.823 19.984 18.548 19.984 18.185C19.984 17.822 19.9125 17.5488 19.7695 17.3655C19.6302 17.1785 19.4065 17.085 19.0985 17.085H18.598V19.285H19.0985Z" fill="white"/>
</svg>
